<svg xmlns="http://www.w3.org/2000/svg" viewBox="0 0 512 512" role="img" aria-label="The Autobuddy icon"><defs><linearGradient id="b" x1="0" y1="0" x2="0" y2="1"><stop stop-color="#22b9ff"/><stop offset=".45" stop-color="#087cff"/><stop offset="1" stop-color="#063ba8"/></linearGradient><linearGradient id="s" x1="0" y1="0" x2="0" y2="1"><stop stop-color="#fff"/><stop offset=".55" stop-color="#d9e2ec"/><stop offset="1" stop-color="#7c8da2"/></linearGradient><linearGradient id="g" x1="0" y1="0" x2="1" y2="1"><stop stop-color="#ffd72e"/><stop offset="1" stop-color="#f39b00"/></linearGradient></defs><rect width="512" height="512" rx="94" fill="#03152f"/><path d="M85 272 116 94 256 44l140 50 31 178-171 149z" fill="#041936" stroke="url(#s)" stroke-width="16"/><path d="M103 182c38-67 100-101 185-101 72 0 126 28 166 83l-32 15c-27-34-66-53-117-59l-92 1c-46 6-82 27-108 62z" fill="url(#b)" stroke="#eef9ff" stroke-width="7"/><path d="M113 172c31-29 64-41 101-43h74c34 4 67 17 95 41l-34 3c-18-14-40-23-68-27h-75c-27 3-50 11-69 27z" fill="#fff"/><path d="M116 208c54 6 107 4 161-5l103-9-25 62-101 62-103-61z" fill="#06285d" stroke="#0782ff" stroke-width="8"/><path d="M163 245c19-18 38-18 56-2 20-16 40-16 60 0 20-16 40-15 59 2" fill="none" stroke="#fff" stroke-width="18" stroke-linecap="round"/><path d="M198 229l24 28 27-27 26 27 24-28" fill="none" stroke="url(#b)" stroke-width="14" stroke-linecap="round"/><path d="M156 278 256 358l100-80-26 75-74 69-76-69z" fill="none" stroke="url(#g)" stroke-width="16"/></svg>